<svg width="1440" height="361" viewBox="0 0 1440 361" fill="none" xmlns="http://www.w3.org/2000/svg">
<path opacity="0.5" d="M95.8235 129.585L91.0243 293.148L-16.2287 248.833L95.8235 129.585Z" fill="#0E0D42"/>
<path opacity="0.5" d="M73.2088 177.363L217.997 253.599L131.033 330.438L73.2088 177.363Z" fill="#260D59"/>
<path opacity="0.5" d="M145.027 376.91L173.367 274.202L240.964 330.562L145.027 376.91Z" fill="#0E0D42"/>
<path opacity="0.5" d="M273.621 228.68L265.852 330.515L202.137 301.624L273.621 228.68Z" fill="#0E0D42"/>
<path opacity="0.5" d="M469.202 182.936L401.621 331.961L319.796 249.67L469.202 182.936Z" fill="#0E0D42"/>
<path opacity="0.5" d="M389.473 332.572L353.097 173.033L468.037 189.033L389.473 332.572Z" fill="#262577"/>
<path opacity="0.5" d="M399.382 280.649L240.101 243.162L305.015 146.969L399.382 280.649Z" fill="#262577"/>
<path opacity="0.5" d="M192.505 281.235L174.486 180.707L243.41 192.695L192.505 281.235Z" fill="#262577"/>
<path opacity="0.5" d="M14.6472 374.569L42.6937 213.358L142.542 272.497L14.6472 374.569Z" fill="#262577"/>
<path opacity="0.5" d="M96.8235 81.5851L92.0243 245.148L-15.2287 200.833L96.8235 81.5851Z" fill="#0E0D42"/>
<path opacity="0.5" d="M74.2088 129.363L218.997 205.599L132.033 282.438L74.2088 129.363Z" fill="#260D59"/>
<path opacity="0.5" d="M274.621 180.68L266.852 282.515L203.137 253.624L274.621 180.68Z" fill="#2A0F62"/>
<path opacity="0.5" d="M470.202 134.936L402.621 283.961L320.796 201.67L470.202 134.936Z" fill="#2A0F62"/>
<path opacity="0.5" d="M388.274 268.452L292.659 361.455L255.853 284.461L388.274 268.452Z" fill="#0E0D42"/>
<path opacity="0.5" d="M95.8235 25.5851L91.0243 189.148L-16.2287 144.833L95.8235 25.5851Z" fill="#0E0D42"/>
<path opacity="0.5" d="M73.2088 73.363L217.997 149.599L131.033 226.438L73.2088 73.363Z" fill="#260D59"/>
<path opacity="0.5" d="M273.621 124.68L265.852 226.515L202.137 197.624L273.621 124.68Z" fill="#2A0F62"/>
<path opacity="0.5" d="M469.202 78.9355L401.621 227.961L319.796 145.67L469.202 78.9355Z" fill="#2A0F62"/>
<path opacity="0.5" d="M95.8235 208.585L91.0243 372.148L-16.2287 327.833L95.8235 208.585Z" fill="#0E0D42"/>
<path opacity="0.5" d="M73.2088 256.363L217.997 332.599L131.033 409.438L73.2088 256.363Z" fill="#0E0D42"/>
<path opacity="0.5" d="M273.621 307.68L265.852 409.515L202.137 380.624L273.621 307.68Z" fill="#0E0D42"/>
<path opacity="0.5" d="M469.202 261.936L401.621 410.961L319.796 328.67L469.202 261.936Z" fill="#0E0D42"/>
<path opacity="0.5" d="M1458.82 157.585L1454.02 321.148L1346.77 276.833L1458.82 157.585Z" fill="#0E0D42"/>
<path opacity="0.5" d="M1436.21 205.363L1581 281.599L1494.03 358.438L1436.21 205.363Z" fill="#260D59"/>
<path opacity="0.5" d="M1377.65 402.569L1405.69 241.358L1505.54 300.497L1377.65 402.569Z" fill="#262577"/>
<path opacity="0.5" d="M1459.82 109.585L1455.02 273.148L1347.77 228.833L1459.82 109.585Z" fill="#0E0D42"/>
<path opacity="0.5" d="M1437.21 157.363L1582 233.599L1495.03 310.438L1437.21 157.363Z" fill="#260D59"/>
<path opacity="0.5" d="M1458.82 53.5851L1454.02 217.148L1346.77 172.833L1458.82 53.5851Z" fill="#0E0D42"/>
<path opacity="0.5" d="M1436.21 101.363L1581 177.599L1494.03 254.438L1436.21 101.363Z" fill="#260D59"/>
<path opacity="0.5" d="M1458.82 236.585L1454.02 400.148L1346.77 355.833L1458.82 236.585Z" fill="#0E0D42"/>
<path opacity="0.5" d="M1436.21 284.363L1581 360.599L1494.03 437.438L1436.21 284.363Z" fill="#0E0D42"/>
<path opacity="0.5" d="M576.824 158.585L572.024 322.148L464.771 277.833L576.824 158.585Z" fill="#0E0D42"/>
<path opacity="0.5" d="M554.209 206.363L698.998 282.599L612.033 359.438L554.209 206.363Z" fill="#260D59"/>
<path opacity="0.5" d="M626.027 405.91L654.367 303.202L721.964 359.562L626.027 405.91Z" fill="#0E0D42"/>
<path opacity="0.5" d="M754.62 257.68L746.852 359.515L683.137 330.624L754.62 257.68Z" fill="#0E0D42"/>
<path opacity="0.5" d="M950.202 211.936L882.621 360.961L800.796 278.67L950.202 211.936Z" fill="#0E0D42"/>
<path opacity="0.5" d="M870.473 361.572L834.097 202.033L949.037 218.033L870.473 361.572Z" fill="#262577"/>
<path opacity="0.5" d="M880.382 309.649L721.101 272.162L786.015 175.969L880.382 309.649Z" fill="#262577"/>
<path opacity="0.5" d="M673.505 310.235L655.486 209.707L724.41 221.695L673.505 310.235Z" fill="#262577"/>
<path opacity="0.5" d="M495.647 403.569L523.694 242.358L623.541 301.497L495.647 403.569Z" fill="#262577"/>
<path opacity="0.5" d="M577.824 110.585L573.024 274.148L465.771 229.833L577.824 110.585Z" fill="#0E0D42"/>
<path opacity="0.5" d="M555.209 158.363L699.998 234.599L613.033 311.438L555.209 158.363Z" fill="#260D59"/>
<path opacity="0.5" d="M755.62 209.68L747.852 311.515L684.137 282.624L755.62 209.68Z" fill="#2A0F62"/>
<path opacity="0.5" d="M951.202 163.936L883.621 312.961L801.796 230.67L951.202 163.936Z" fill="#2A0F62"/>
<path opacity="0.5" d="M869.274 297.452L773.659 390.455L736.853 313.461L869.274 297.452Z" fill="#0E0D42"/>
<path opacity="0.5" d="M554.209 102.363L698.998 178.599L612.033 255.438L554.209 102.363Z" fill="#260D59"/>
<path opacity="0.5" d="M754.62 153.68L746.852 255.515L683.137 226.624L754.62 153.68Z" fill="#2A0F62"/>
<path opacity="0.5" d="M950.202 107.936L882.621 256.961L800.796 174.67L950.202 107.936Z" fill="#2A0F62"/>
<path opacity="0.5" d="M576.824 237.585L572.024 401.148L464.771 356.833L576.824 237.585Z" fill="#0E0D42"/>
<path opacity="0.5" d="M554.209 285.363L698.998 361.599L612.033 438.438L554.209 285.363Z" fill="#0E0D42"/>
<path opacity="0.5" d="M754.62 336.68L746.852 438.515L683.137 409.624L754.62 336.68Z" fill="#0E0D42"/>
<path opacity="0.5" d="M950.202 290.936L882.621 439.961L800.796 357.67L950.202 290.936Z" fill="#0E0D42"/>
<path opacity="0.5" d="M1104.82 162.585L1100.02 326.148L992.771 281.833L1104.82 162.585Z" fill="#0E0D42"/>
<path opacity="0.5" d="M1082.21 210.363L1227 286.599L1140.03 363.438L1082.21 210.363Z" fill="#260D59"/>
<path opacity="0.5" d="M1154.03 409.91L1182.37 307.202L1249.96 363.562L1154.03 409.91Z" fill="#0E0D42"/>
<path opacity="0.5" d="M1282.62 261.68L1274.85 363.515L1211.14 334.624L1282.62 261.68Z" fill="#0E0D42"/>
<path opacity="0.5" d="M1478.2 215.936L1410.62 364.961L1328.8 282.67L1478.2 215.936Z" fill="#0E0D42"/>
<path opacity="0.5" d="M1398.47 365.572L1362.1 206.033L1477.04 222.033L1398.47 365.572Z" fill="#262577"/>
<path opacity="0.5" d="M1408.38 313.649L1249.1 276.162L1314.01 179.969L1408.38 313.649Z" fill="#262577"/>
<path opacity="0.5" d="M1201.51 314.235L1183.49 213.707L1252.41 225.695L1201.51 314.235Z" fill="#262577"/>
<path opacity="0.5" d="M1023.65 407.569L1051.69 246.358L1151.54 305.497L1023.65 407.569Z" fill="#262577"/>
<path opacity="0.5" d="M1105.82 114.585L1101.02 278.148L993.771 233.833L1105.82 114.585Z" fill="#0E0D42"/>
<path opacity="0.5" d="M1083.21 162.363L1228 238.599L1141.03 315.438L1083.21 162.363Z" fill="#260D59"/>
<path opacity="0.5" d="M1283.62 213.68L1275.85 315.515L1212.14 286.624L1283.62 213.68Z" fill="#2A0F62"/>
<path opacity="0.5" d="M1479.2 167.936L1411.62 316.961L1329.8 234.67L1479.2 167.936Z" fill="#2A0F62"/>
<path opacity="0.5" d="M1397.27 301.452L1301.66 394.455L1264.85 317.461L1397.27 301.452Z" fill="#0E0D42"/>
<path opacity="0.5" d="M1082.21 106.363L1227 182.599L1140.03 259.438L1082.21 106.363Z" fill="#260D59"/>
<path opacity="0.5" d="M1282.62 157.68L1274.85 259.515L1211.14 230.624L1282.62 157.68Z" fill="#2A0F62"/>
<path opacity="0.5" d="M1478.2 111.936L1410.62 260.961L1328.8 178.67L1478.2 111.936Z" fill="#2A0F62"/>
<path opacity="0.5" d="M1104.82 241.585L1100.02 405.148L992.771 360.833L1104.82 241.585Z" fill="#0E0D42"/>
<path opacity="0.5" d="M1082.21 289.363L1227 365.599L1140.03 442.438L1082.21 289.363Z" fill="#0E0D42"/>
<path opacity="0.5" d="M1282.62 340.68L1274.85 442.515L1211.14 413.624L1282.62 340.68Z" fill="#0E0D42"/>
<path opacity="0.5" d="M1478.2 294.936L1410.62 443.961L1328.8 361.67L1478.2 294.936Z" fill="#0E0D42"/>
<path opacity="0.5" d="M685.209 291.363L829.997 367.599L743.033 444.438L685.209 291.363Z" fill="#0E0D42"/>
<path opacity="0.5" d="M1016.58 325.649L857.296 288.162L922.21 191.969L1016.58 325.649Z" fill="#262577"/>
</svg>
